<?xml version='1.0' encoding='utf-8'?>
<svg xmlns="http://www.w3.org/2000/svg" width="271.38724mm" height="200.8667mm" viewBox="0 0 271.38724 200.8667" version="1.1" id="svg6279"> <defs id="defs6273"/> <metadata id="metadata6276"> </metadata> <g id="layer1" transform="translate(10.08459,-7.4675435)"> <g transform="matrix(0.67220049,0,0,0.67220049,-2494.2759,348.81162)" id="g6224"> <path id="path7384" d="m 2062.8757,-35.220758 c 46.1414,10.902816 57.828,17.461792 101.8645,32.8083327 9.5023,6.613942 16.9778,14.1972273 30.1625,19.0500003 3.1399,1.578187 6.2487,3.169638 8.7313,5.027083 15.8881,4.17549 21.4388,10.813296 23.8786,9.888802 3.7982,-1.004795 7.4245,-0.945532 11.0464,-0.892968 3.1798,1.107865 6.4335,1.625302 9.7896,1.322916 1.3344,-2.889388 1.9843,-5.800163 -2.249,-8.863541 0,0 6.335,-2.549103 8.2021,-4.960937 1.8671,-2.411834 2.9741,-5.479802 2.1828,-8.069793 -0.7913,-2.5899913 -5.4901,-5.0932283 -5.4901,-5.0932283 0,0 6.4463,-0.325304 7.8714,-3.638021 1.4251,-3.312718 1.964,-6.112934 1.4552,-8.334375 -0.5088,-2.221441 -1.3943,-3.1433917 -3.0427,-4.2333327 -1.6484,-1.089941 -5.887,-1.521355 -5.887,-1.521355 0,0 2.8864,-1.721668 3.7703,-3.538802 0.8839,-1.817134 0.9936,-4.302734 0.1323,-6.482291 -0.8613,-2.179557 -3.3079,-4.291407 -5.2917,-5.423958 -1.9838,-1.132551 -5.3578,-1.488282 -5.3578,-1.488282 3.8253,-1.998308 3.8765,-6.90313 1.0583,-9.260416 l -6.2177,-4.365625 c -3.8826,-2.038484 -8.8414,-3.538808 -14.4859,-4.696354 -2.7863,-2.137715 -7.9725,-2.919475 -12.4354,-1.984375 -13.6422,-3.752352 -19.8777,-1.322029 -29.5672,-0.463021 l -30.6917,-5.556251 -75.6708,-26.45833 z" style="fill:#ffccaa;fill-opacity:1;fill-rule:evenodd;stroke:#550000;stroke-width:0.26458332px;stroke-linecap:butt;stroke-linejoin:miter;stroke-opacity:1" transform="matrix(1.7106141,-0.57131849,0.57131849,1.7106141,190.64403,846.78151)"/> <path id="path7386" d="m 2195.2996,15.711533 c 4.8075,1.923267 9.7991,4.858677 14.2875,5.027084 6.7136,-0.913381 13.1547,0.08065 19.7115,0.264583 7.3667,-9.76e-4 11.802,1.170594 16.801,2.116667" style="fill:none;fill-rule:evenodd;stroke:#550000;stroke-width:0.26458332px;stroke-linecap:butt;stroke-linejoin:miter;stroke-opacity:1" transform="matrix(1.7106141,-0.57131849,0.57131849,1.7106141,190.64403,846.78151)"/> <path id="path7388" d="m 2236.8392,3.1438247 c 4.5702,1.358563 9.3377,1.730243 14.1552,1.852084" style="fill:none;fill-rule:evenodd;stroke:#550000;stroke-width:0.26458332px;stroke-linecap:butt;stroke-linejoin:miter;stroke-opacity:1" transform="matrix(1.7106141,-0.57131849,0.57131849,1.7106141,190.64403,846.78151)"/> <path id="path7390" d="m 2251.3913,-12.731175 c -3.7843,-0.712318 -7.6492,-1.357412 -12.1709,-1.455208 -0.2532,-0.200378 -0.4532,-0.436068 -0.496,-0.727605" style="fill:none;fill-rule:evenodd;stroke:#550000;stroke-width:0.26458332px;stroke-linecap:butt;stroke-linejoin:miter;stroke-opacity:1" transform="matrix(1.7106141,-0.57131849,0.57131849,1.7106141,190.64403,846.78151)"/> <path id="path7392" d="m 2239.2204,-14.186383 c -0.2997,0.03097 -0.6185,0.04285 -0.8598,0.132292" style="fill:none;fill-rule:evenodd;stroke:#550000;stroke-width:0.26458332px;stroke-linecap:butt;stroke-linejoin:miter;stroke-opacity:1" transform="matrix(1.7106141,-0.57131849,0.57131849,1.7106141,190.64403,846.78151)"/> <path id="path7394" d="m 2236.8392,3.1438247 c -0.3908,-0.121837 -0.9531,-0.386315 -0.9591,-0.727604" style="fill:none;fill-rule:evenodd;stroke:#550000;stroke-width:0.26458332px;stroke-linecap:butt;stroke-linejoin:miter;stroke-opacity:1" transform="matrix(1.7106141,-0.57131849,0.57131849,1.7106141,190.64403,846.78151)"/> <path id="path7396" d="m 2244.6444,-29.664508 c -2.8827,-0.495536 -5.2267,-1.23046 -9.5897,-1.068067 -1.1971,-0.439983 -2.3745,-0.623736 -3.7417,-3.274052" style="fill:none;fill-rule:evenodd;stroke:#550000;stroke-width:0.26458332px;stroke-linecap:butt;stroke-linejoin:miter;stroke-opacity:1" transform="matrix(1.7106141,-0.57131849,0.57131849,1.7106141,190.64403,846.78151)"/> <path id="path7398" d="m 2254.2356,-21.131695 c 0.7412,1.10243 0.9502,2.204861 -0.066,3.307291" style="fill:none;fill-rule:evenodd;stroke:#550000;stroke-width:0.26458332px;stroke-linecap:butt;stroke-linejoin:miter;stroke-opacity:1" transform="matrix(1.7106141,-0.57131849,0.57131849,1.7106141,190.64403,846.78151)"/> <path id="path7400" d="m 2258.2043,-8.2994043 c 1.1282,0.866011 1.5175,1.978318 1.0583,3.373438" style="fill:none;fill-rule:evenodd;stroke:#550000;stroke-width:0.26458332px;stroke-linecap:butt;stroke-linejoin:miter;stroke-opacity:1" transform="matrix(1.7106141,-0.57131849,0.57131849,1.7106141,190.64403,846.78151)"/> <path id="path7402" d="m 2257.0137,-7.6379463 c 1.9304,1.741139 1.152,4.00331 1.6536,6.019271" style="fill:none;fill-rule:evenodd;stroke:#550000;stroke-width:0.26458332px;stroke-linecap:butt;stroke-linejoin:miter;stroke-opacity:1" transform="matrix(1.7106141,-0.57131849,0.57131849,1.7106141,190.64403,846.78151)"/> <path id="path7404" d="m 2255.0293,11.941221 c 0.044,1.719842 0.1792,3.469916 -1.0583,4.7625" style="fill:none;fill-rule:evenodd;stroke:#550000;stroke-width:0.26458332px;stroke-linecap:butt;stroke-linejoin:miter;stroke-opacity:1" transform="matrix(1.7106141,-0.57131849,0.57131849,1.7106141,190.64403,846.78151)"/> <path id="path7406" d="m 2246.4303,-35.419195 c 0.3457,1.10243 0.3779,2.204861 -0.3307,3.307291" style="fill:none;fill-rule:evenodd;stroke:#550000;stroke-width:0.26458332px;stroke-linecap:butt;stroke-linejoin:miter;stroke-opacity:1" transform="matrix(1.7106141,-0.57131849,0.57131849,1.7106141,190.64403,846.78151)"/> <rect style="opacity:1;fill:#2f1a0d;fill-opacity:1;stroke:#550000;stroke-width:0.26499999;stroke-linecap:round;stroke-linejoin:round;stroke-miterlimit:4;stroke-dasharray:none;stroke-dashoffset:0;stroke-opacity:1" id="rect7412" width="20.385815" height="32.682816" x="2006.8503" y="-635.97571" ry="1.2265052" transform="matrix(1.8033033,-0.02651068,0.02651068,1.8033033,249.34716,736.29932)"/> <path d="m 2123.6477,20.027903 a 13.867318,13.337751 0 0 1 -13.4547,13.708235 13.867318,13.337751 0 0 1 -14.268,-12.925053 13.867318,13.337751 0 0 1 13.4218,-13.7380125 13.867318,13.337751 0 0 1 14.2989,12.8934025" id="path7410" style="opacity:1;fill:#ffcc00;fill-opacity:1;stroke:#550000;stroke-width:0.35677794;stroke-linecap:round;stroke-linejoin:round;stroke-miterlimit:4;stroke-dasharray:none;stroke-dashoffset:0;stroke-opacity:1" transform="matrix(1.7106141,-0.57131849,0.57131849,1.7106141,249.34714,736.29932)"/> <path d="m 2120.5512,20.404129 a 10.765302,10.354196 0 0 1 -10.677,10.353847 10.765302,10.354196 0 0 1 -10.8522,-10.183944 10.765302,10.354196 0 0 1 10.4989,-10.520962 10.765302,10.354196 0 0 1 11.0245,10.011299" id="path7449" style="opacity:1;fill:#ffffff;fill-opacity:1;stroke:#550000;stroke-width:0.27696934;stroke-linecap:round;stroke-linejoin:round;stroke-miterlimit:4;stroke-dasharray:none;stroke-dashoffset:0;stroke-opacity:1" transform="matrix(1.7106141,-0.57131849,0.57131849,1.7106141,249.34714,736.29932)"/> <path style="opacity:1;fill:none;fill-opacity:1;stroke:#550000;stroke-width:0.57700002;stroke-linecap:round;stroke-linejoin:round;stroke-miterlimit:4;stroke-dasharray:none;stroke-dashoffset:0;stroke-opacity:1" id="path7408" d="m 2120.5456,20.071398 a 10.765302,10.354196 0 0 1 -10.4119,10.681522 10.765302,10.354196 0 0 1 -11.1074,-10.012546 10.765302,10.354196 0 0 1 10.4082,-10.684922 10.765302,10.354196 0 0 1 11.1109,10.008917" transform="matrix(1.7106141,-0.57131849,0.57131849,1.7106141,249.34714,736.29932)"/> <path style="fill:#241c1c;fill-rule:evenodd;stroke:#000000;stroke-width:0.26458332px;stroke-linecap:butt;stroke-linejoin:miter;stroke-opacity:1" d="m 2107.7782,5.4038995 c 9.2728,0.91714 10.4762,2.443771 12.722,3.648228 l 0.9354,-2.104746 1.5903,0.467723 3.4144,-12.768804 c 1.1217,-3.53533 -13.5797,-6.2078895 -14.9672,-3.227276 l -4.3497,11.038229 1.7773,0.514493 z" id="path7417" transform="matrix(1.7106141,-0.57131849,0.57131849,1.7106141,249.34714,736.29932)"/> <path style="fill:#241c1c;fill-rule:evenodd;stroke:#000000;stroke-width:0.26458332px;stroke-linecap:butt;stroke-linejoin:miter;stroke-opacity:1" d="m 2099.0675,31.633305 -0.3421,1.874782 -2.1828,-0.595317 -0.4517,8.973135 c -0.4052,2.521102 13.2621,5.24916 14.381,4.486568 1.119,-0.762592 1.1755,-0.781609 1.3617,-1.377714 l 2.0671,-6.571105 -2.0591,-1.087139 0.2566,-2.395922 c -3.9852,0.15173 -7.8419,0.753388 -13.0307,-3.307288 z" id="path7419" transform="matrix(1.7106141,-0.57131849,0.57131849,1.7106141,249.34714,736.29932)"/> <path id="path7460" d="m 2238.559,30.66049 c 3.0185,-0.133083 6.0484,-0.437414 9.0073,0.322808 0.7924,0.169783 0.7796,0.587322 0.7823,1.000109 -3.6406,0.125166 -6.8334,-0.421382 -9.7896,-1.322917 z" style="fill:#ffe6d6;fill-opacity:1;fill-rule:evenodd;stroke:#550000;stroke-width:0.26458332px;stroke-linecap:butt;stroke-linejoin:miter;stroke-opacity:1" transform="matrix(1.7106141,-0.57131849,0.57131849,1.7106141,190.64403,846.78151)"/> <path id="path6164" d="m 2162.8355,-35.602417 -2.7483,8.228687 7.6584,-1.562461" style="fill:none;fill-rule:evenodd;stroke:#000000;stroke-width:0.49163651;stroke-linecap:round;stroke-linejoin:round;stroke-miterlimit:4;stroke-dasharray:none;stroke-opacity:1" transform="matrix(1.7106141,-0.57131849,0.57131849,1.7106141,190.64403,846.78151)"/> <g id="g7372" transform="matrix(1.6468963,-0.69144237,0.69144237,1.6468963,646.4042,1135.0342)"> <g id="g7345"> <path style="fill:#ffccaa;fill-opacity:1;fill-rule:evenodd;stroke:#550000;stroke-width:0.26499999;stroke-linecap:round;stroke-linejoin:round;stroke-miterlimit:4;stroke-dasharray:none;stroke-opacity:1" d="m 2026.8808,34.743553 -3.6782,-4.178968 c -0.8095,-0.48446 -1.8544,-2.468065 -1.8522,-3.439584 -1.027,-2.784376 -3.4713,-3.724271 -5.2254,-7.14375 -4.8747,-7.139978 -10.075,-13.6284842 -15.4782,-19.71145824 -2.3541,-6.97462436 -4.4137,-13.82301576 -7.9375,-21.29895776 -2.2186,-2.922323 -1.2036,-7.834527 -0.2645,-12.7 -2.8303,-4.871555 -2.8417,-10.123589 -0.43,-10.666015 2.7995,-3.663855 16.815,6.369696 15.4451,16.354557 2.6532,2.987246 3.9042,6.229441 5.2255,9.458853 2.0345,-6.40101 2.2366,-14.967682 3.0079,-22.861631 -0.5638,-6.026135 -0.4033,-11.961718 -2.2451,-18.147599 -0.8042,-4.277448 -0.3922,-8.433272 0.5613,-12.534942 0.1871,-5.799749 -1.1895,-11.391003 0.5613,-17.399246 0.5008,-3.178968 0.7653,-9.26372 7.375,-9.22533 8.3045,0.172859 7.4242,9.785538 7.0115,18.917708 0.7258,6.330319 1.6771,12.324799 2.3107,18.56281 0.5403,5.320806 0.7221,10.84428 1.7242,16.626773 2.061,-1.415944 2.7584,-3.400035 6.2177,-4.233334 2.0071,-0.523706 4.7625,-0.343063 7.1437,0.992188 2.9688,1.643687 5.9281,6.81403 6.4162,11.046354 2.7926,-0.459072 5.7795,-0.06135 8.2682,2.579687 2.8951,0.476768 5.752,1.374481 8.4005,4.564063 4.3503,0.989766 12.2266,1.728083 13.0969,11.773958 -0.3169,3.746279 3.5413,5.478501 2.2489,11.6416663 0.5494,4.462179 5.0357,12.4709078 -5.8208,32.0807287 l -5.0271,27.913542 z" id="path7309"/> <path style="fill:none;fill-rule:evenodd;stroke:#550000;stroke-width:0.26499999;stroke-linecap:round;stroke-linejoin:round;stroke-miterlimit:4;stroke-dasharray:none;stroke-opacity:1" d="m 2012.6854,-18.58177 c -0.9548,5.13468 -2.6802,10.333585 -1.6693,15.304457" id="path7311"/> <path style="fill:none;fill-rule:evenodd;stroke:#550000;stroke-width:0.26499999;stroke-linecap:round;stroke-linejoin:round;stroke-miterlimit:4;stroke-dasharray:none;stroke-opacity:1" d="m 1992.2604,-22.453901 c -0.5247,-1.60379 4.7485,-8.474442 5.0982,-7.53032" id="path7313"/> <path style="fill:none;fill-rule:evenodd;stroke:#550000;stroke-width:0.26499999;stroke-linecap:round;stroke-linejoin:round;stroke-miterlimit:4;stroke-dasharray:none;stroke-opacity:1" d="m 1991.8863,-29.142322 c 0.8643,-1.093848 1.8359,-1.645544 2.8998,-1.730571" id="path7315"/> <path style="fill:#ffe6d6;fill-opacity:1;fill-rule:evenodd;stroke:#550000;stroke-width:0.26499999;stroke-linecap:round;stroke-linejoin:round;stroke-miterlimit:4;stroke-dasharray:none;stroke-opacity:1" d="m 1992.4448,-33.729165 c 0.2723,-1.863438 1.6037,-2.66786 2.809,-3.598286 -0.1025,-2.001158 0.027,-4.06024 -0.5612,-5.940065 -0.8242,-1.014077 -1.7213,-1.348015 -2.6778,-1.127664 -3.3822,1.760299 -1.0464,7.557588 0.43,10.666015 z" id="path7317"/> <path style="fill:none;fill-rule:evenodd;stroke:#550000;stroke-width:0.26499999;stroke-linecap:round;stroke-linejoin:round;stroke-miterlimit:4;stroke-dasharray:none;stroke-opacity:1" d="m 2032.9922,-44.643227 1.5875,2.976562" id="path7319"/> <path style="fill:none;fill-rule:evenodd;stroke:#550000;stroke-width:0.26499999;stroke-linecap:round;stroke-linejoin:round;stroke-miterlimit:4;stroke-dasharray:none;stroke-opacity:1" d="m 2017.0497,-60.245812 c 3.5391,0.592954 7.0782,0.72082 10.6173,-0.09354" id="path7321"/> <path style="fill:none;fill-rule:evenodd;stroke:#550000;stroke-width:0.26499999;stroke-linecap:round;stroke-linejoin:round;stroke-miterlimit:4;stroke-dasharray:none;stroke-opacity:1" d="m 2021.8672,-62.677965 c 2.0786,-0.395903 2.9921,-0.09276 4.2563,0" id="path7323"/> <path style="fill:none;fill-rule:evenodd;stroke:#550000;stroke-width:0.26499999;stroke-linecap:round;stroke-linejoin:round;stroke-miterlimit:4;stroke-dasharray:none;stroke-opacity:1" d="m 2015.8336,-63.706954 c 5.7046,-2.976487 9.1634,-2.17014 12.4414,-1.169302" id="path7325"/> <path style="fill:none;fill-rule:evenodd;stroke:#550000;stroke-width:0.26499999;stroke-linecap:round;stroke-linejoin:round;stroke-miterlimit:4;stroke-dasharray:none;stroke-opacity:1" d="m 2018.1722,-84.239932 c 2.3854,-1.011307 4.7707,-0.750506 7.1561,-0.374179" id="path7327"/> <path style="fill:none;fill-rule:evenodd;stroke:#550000;stroke-width:0.26499999;stroke-linecap:round;stroke-linejoin:round;stroke-miterlimit:4;stroke-dasharray:none;stroke-opacity:1" d="m 2021.5866,-82.509364 c 0.8731,0.330346 1.7461,0.17976 2.6192,0.187089" id="path7329"/> <path style="fill:#ffe6d6;fill-opacity:1;fill-rule:evenodd;stroke:#550000;stroke-width:0.26499999;stroke-linecap:round;stroke-linejoin:round;stroke-miterlimit:4;stroke-dasharray:none;stroke-opacity:1" d="m 2018.3593,-90.367087 c 3.2728,0.82634 6.1405,0.680467 8.9803,0.467722 -0.3283,-2.462427 -0.01,-5.575621 -1.45,-6.922283 -0.9968,-0.974705 -3.9351,-2.421289 -7.9513,-0.04677 -0.678,1.108777 -0.473,4.334221 0.421,6.501331 z" id="path7331"/> </g> <path id="path7347" d="m 2052.7698,-36.838019 c -0.083,3.443047 0.9806,6.533332 -3.4396,11.310937 l -1.0583,11.773958" style="fill:none;fill-opacity:1;fill-rule:evenodd;stroke:#550000;stroke-width:0.26499999;stroke-linecap:round;stroke-linejoin:round;stroke-miterlimit:4;stroke-dasharray:none;stroke-opacity:1"/> <path id="path7349" d="m 2069.9677,-26.056248 c -0.1,4.322754 -1.138,8.243546 -3.7042,11.509374" style="fill:none;fill-opacity:1;fill-rule:evenodd;stroke:#550000;stroke-width:0.26499999;stroke-linecap:round;stroke-linejoin:round;stroke-miterlimit:4;stroke-dasharray:none;stroke-opacity:1"/> <path id="path7351" d="m 2040.2682,-48.016665 c 2.1266,-0.504834 3.7346,0.02738 5.1594,0.926042" style="fill:none;fill-rule:evenodd;stroke:#550000;stroke-width:0.26499999;stroke-linecap:round;stroke-linejoin:round;stroke-miterlimit:4;stroke-dasharray:none;stroke-opacity:1"/> <path id="path7353" d="m 2061.038,-34.258332 c -1.5099,-0.193615 -2.9791,-0.292445 -3.9688,0.727605" style="fill:none;fill-rule:evenodd;stroke:#550000;stroke-width:0.26499999;stroke-linecap:round;stroke-linejoin:round;stroke-miterlimit:4;stroke-dasharray:none;stroke-opacity:1"/> </g> </g> </g> </svg>